<svg width="300" height="300" viewBox="0 0 300 300" fill="none" xmlns="http://www.w3.org/2000/svg">
  <!-- Circular Icon Logo -->
  <defs>
    <linearGradient id="iconRingGradient" x1="0%" y1="0%" x2="100%" y2="100%">
      <stop offset="0%" style="stop-color:#1e3a8a;stop-opacity:1" />
      <stop offset="100%" style="stop-color:#00ffff;stop-opacity:1" />
    </linearGradient>
    <radialGradient id="iconBadgeFill" cx="50%" cy="50%" r="50%">
      <stop offset="0%" style="stop-color:#1e3a8a;stop-opacity:0.4" />
      <stop offset="100%" style="stop-color:#1d4ed8;stop-opacity:0.3" />
    </radialGradient>
  </defs>
  
  <!-- Outer gradient ring -->
  <circle cx="150" cy="150" r="130" fill="none" stroke="url(#iconRingGradient)" stroke-width="20"/>
  
  <!-- Inner circle background with lighter gradient -->
  <circle cx="150" cy="150" r="110" fill="url(#iconBadgeFill)"/>
  
  <!-- TM Letters with upward arrow - higher contrast -->
  <g transform="translate(150, 150)">
    <!-- T letter -->
    <path d="M -45 -30 L -45 -50 L -15 -50 L -15 -30 L -25 -30 L -25 50 L -35 50 L -35 -30 Z" fill="#e2e8f0" stroke="#1e3a8a" stroke-width="1"/>
    
    <!-- M letter with integrated arrow -->
    <path d="M -5 50 L -5 -50 L 5 -50 L 25 -10 L 45 -50 L 55 -50 L 55 50 L 45 50 L 45 -20 L 30 15 L 20 15 L 5 -20 L 5 50 Z" fill="#e2e8f0" stroke="#1e3a8a" stroke-width="1"/>
    
    <!-- Upward arrow integrated into M -->
    <path d="M 35 -35 L 45 -50 L 55 -35" stroke="#00ffff" stroke-width="5" fill="none" stroke-linecap="round" stroke-linejoin="round"/>
    <line x1="45" y1="-50" x2="45" y2="-15" stroke="#00ffff" stroke-width="5" stroke-linecap="round"/>
  </g>
</svg>