<svg width="1200" height="300" viewBox="0 0 1200 300" fill="none" xmlns="http://www.w3.org/2000/svg">
  <!-- Circular Badge with Gradient Ring -->
  <defs>
    <linearGradient id="ringGradient" x1="0%" y1="0%" x2="100%" y2="100%">
      <stop offset="0%" style="stop-color:#1e3a8a;stop-opacity:1" />
      <stop offset="100%" style="stop-color:#00ffff;stop-opacity:1" />
    </linearGradient>
  </defs>
  
  <!-- Outer gradient ring -->
  <circle cx="150" cy="150" r="130" fill="none" stroke="url(#ringGradient)" stroke-width="20"/>
  
  <!-- Inner circle background -->
  <circle cx="150" cy="150" r="110" fill="#0f172a"/>
  
  <!-- TM Letters with upward arrow -->
  <g transform="translate(150, 150)">
    <!-- T letter -->
    <path d="M -45 -30 L -45 -50 L -15 -50 L -15 -30 L -25 -30 L -25 50 L -35 50 L -35 -30 Z" fill="#1e40af"/>
    
    <!-- M letter with integrated arrow -->
    <path d="M -5 50 L -5 -50 L 5 -50 L 25 -10 L 45 -50 L 55 -50 L 55 50 L 45 50 L 45 -20 L 30 15 L 20 15 L 5 -20 L 5 50 Z" fill="#1e40af"/>
    
    <!-- Upward arrow integrated into M -->
    <path d="M 35 -35 L 45 -50 L 55 -35" stroke="#00ffff" stroke-width="4" fill="none" stroke-linecap="round" stroke-linejoin="round"/>
    <line x1="45" y1="-50" x2="45" y2="-15" stroke="#00ffff" stroke-width="4" stroke-linecap="round"/>
  </g>
  
  <!-- TypeMaster Text -->
  <text x="320" y="180" font-family="'DM Sans', sans-serif" font-size="90" font-weight="700" fill="#f8fafc">TypeMaster</text>
  
  <!-- AI Text in cyan -->
  <text x="920" y="180" font-family="'DM Sans', sans-serif" font-size="90" font-weight="700" fill="#00ffff">AI</text>
</svg>